<svg class="h-16 w-auto" width="397" height="159" viewBox="0 0 397 159" fill="none" xmlns="http://www.w3.org/2000/svg">
  <g id="8bd4422b">
    <g id="c09b837b">
      <g id="00197322">
        <path id="33848d1a" d="M159.312 96V51.2H169.68V87.552H192.144V96H159.312ZM207.536 69.248H229.104V77.312H207.536V69.248ZM208.304 87.68H232.688V96H198V51.2H231.856V59.52H208.304V87.68ZM262.377 96.768C258.921 96.768 255.7 96.2133 252.713 95.104C249.769 93.952 247.209 92.3307 245.033 90.24C242.857 88.1493 241.15 85.696 239.913 82.88C238.718 80.064 238.121 76.9707 238.121 73.6C238.121 70.2293 238.718 67.136 239.913 64.32C241.15 61.504 242.857 59.0507 245.033 56.96C247.252 54.8693 249.833 53.2693 252.777 52.16C255.721 51.008 258.942 50.432 262.441 50.432C266.324 50.432 269.822 51.1147 272.937 52.48C276.094 53.8027 278.74 55.7653 280.873 58.368L274.217 64.512C272.681 62.7627 270.974 61.4613 269.097 60.608C267.22 59.712 265.172 59.264 262.953 59.264C260.862 59.264 258.942 59.6053 257.193 60.288C255.444 60.9707 253.929 61.952 252.649 63.232C251.369 64.512 250.366 66.0267 249.641 67.776C248.958 69.5253 248.617 71.4667 248.617 73.6C248.617 75.7333 248.958 77.6747 249.641 79.424C250.366 81.1733 251.369 82.688 252.649 83.968C253.929 85.248 255.444 86.2293 257.193 86.912C258.942 87.5947 260.862 87.936 262.953 87.936C265.172 87.936 267.22 87.5093 269.097 86.656C270.974 85.76 272.681 84.416 274.217 82.624L280.873 88.768C278.74 91.3707 276.094 93.3547 272.937 94.72C269.822 96.0853 266.302 96.768 262.377 96.768ZM296.717 96V59.648H282.381V51.2H321.421V59.648H307.085V96H296.717ZM327 96V51.2H337.368V96H327ZM369.76 96.768C366.218 96.768 362.933 96.192 359.904 95.04C356.917 93.888 354.314 92.2667 352.095 90.176C349.92 88.0853 348.213 85.632 346.976 82.816C345.781 80 345.184 76.928 345.184 73.6C345.184 70.272 345.781 67.2 346.976 64.384C348.213 61.568 349.941 59.1147 352.16 57.024C354.378 54.9333 356.981 53.312 359.968 52.16C362.954 51.008 366.197 50.432 369.696 50.432C373.237 50.432 376.479 51.008 379.424 52.16C382.41 53.312 384.992 54.9333 387.168 57.024C389.386 59.1147 391.114 61.568 392.352 64.384C393.589 67.1573 394.208 70.2293 394.208 73.6C394.208 76.928 393.589 80.0213 392.352 82.88C391.114 85.696 389.386 88.1493 387.168 90.24C384.992 92.288 382.41 93.888 379.424 95.04C376.479 96.192 373.258 96.768 369.76 96.768ZM369.696 87.936C371.701 87.936 373.536 87.5947 375.2 86.912C376.906 86.2293 378.4 85.248 379.68 83.968C380.96 82.688 381.941 81.1733 382.624 79.424C383.349 77.6747 383.712 75.7333 383.712 73.6C383.712 71.4667 383.349 69.5253 382.624 67.776C381.941 66.0267 380.96 64.512 379.68 63.232C378.442 61.952 376.97 60.9707 375.264 60.288C373.557 59.6053 371.701 59.264 369.696 59.264C367.69 59.264 365.834 59.6053 364.128 60.288C362.464 60.9707 360.992 61.952 359.712 63.232C358.432 64.512 357.429 66.0267 356.704 67.776C356.021 69.5253 355.68 71.4667 355.68 73.6C355.68 75.6907 356.021 77.632 356.704 79.424C357.429 81.1733 358.41 82.688 359.648 83.968C360.928 85.248 362.421 86.2293 364.128 86.912C365.834 87.5947 367.69 87.936 369.696 87.936Z" fill="#333233"></path>
      </g>
      <path id="67fdc9de" d="M32.7413 21.7693C32.7413 21.4107 33.0333 21.1173 33.392 21.1173H95.524C95.8827 21.1173 96.1747 21.4107 96.1747 21.7693V108.152C96.1747 108.512 95.8827 108.804 95.524 108.804H33.392C33.0333 108.804 32.7413 108.512 32.7413 108.152V21.7693ZM33.392 111.708H95.524C97.488 111.708 99.08 110.116 99.08 108.152V21.7693C99.08 19.8053 97.488 18.212 95.524 18.212H33.392C31.428 18.212 29.836 19.8053 29.836 21.7693V108.152C29.836 110.116 31.428 111.708 33.392 111.708Z" fill="#333233"></path>
      <path id="dbfac728" d="M4.44213 151.64V136.123C4.44213 134.204 6.0016 132.161 7.9188 132.161H13.3653H114.096V143.46H96.192C95.608 143.46 95.1347 143.933 95.1347 144.517C95.1347 145.101 95.608 145.575 96.192 145.575H114.096V149.447H67.1667C66.5853 149.447 66.1093 149.917 66.1093 150.504C66.1093 151.084 66.5853 151.56 67.1667 151.56H114.096V155.112H7.9188C6.0016 155.112 4.44213 153.553 4.44213 151.64ZM14.82 5.74936C14.82 4.60803 15.76 3.68002 16.9173 3.68002H104.215C109.848 3.68002 114.096 7.68268 114.096 12.988V126.525C114.096 126.663 114.083 126.797 114.052 126.939C113.936 127.517 113.573 127.996 113.087 128.288H15.832C15.344 127.995 14.9787 127.511 14.8613 126.921C14.8333 126.797 14.82 126.663 14.82 126.525V5.74936ZM117.001 131.491C117.297 131.151 117.483 130.711 117.483 130.225C117.483 129.525 117.109 128.917 116.553 128.577C116.704 128.247 116.823 127.896 116.896 127.528C116.967 127.203 117.001 126.865 117.001 126.525V12.988C117.001 6.13867 111.384 0.774689 104.215 0.774689H16.9173C15.228 0.774689 13.7347 1.61469 12.828 2.89334C12.456 2.48668 11.9267 2.22801 11.332 2.22801H2.59693C1.4792 2.22801 0.568268 3.13867 0.568268 4.25601C0.568268 4.31868 0.573464 4.37735 0.578131 4.44002C0.569731 4.47203 0.569334 18.0653 0.568268 15.588V136.123V140.973V151.64C0.568268 155.693 3.8656 158.985 7.9188 158.985H115.547C116.616 158.985 117.483 158.119 117.483 157.048C117.483 156.564 117.297 156.125 117.001 155.784V131.491Z" fill="#333233"></path>
      <path id="4915808c" d="M90.6507 139.52C91.0667 139.385 91.36 138.988 91.36 138.531C91.36 138.067 91.0667 137.676 90.6507 137.535C90.5413 137.492 90.4253 137.473 90.3027 137.473H41.916C41.336 137.473 40.86 137.945 40.86 138.531C40.86 139.111 41.336 139.587 41.916 139.587H90.3027C90.4253 139.587 90.5413 139.569 90.6507 139.52Z" fill="#333233"></path>
      <path id="0b171b93" d="M39.2773 143.46H13.2013C12.6173 143.46 12.144 143.933 12.144 144.517C12.144 145.101 12.6173 145.575 13.2013 145.575H39.2773C39.8613 145.575 40.3333 145.101 40.3333 144.517C40.3333 143.933 39.8613 143.46 39.2773 143.46Z" fill="#333233"></path>
    </g>
  </g>
</svg>